<svg xmlns="http://www.w3.org/2000/svg" width="32" height="32" viewBox="0 0 8.467 8.467"><g transform="translate(149.36 -506.998)"><path fill="#8be1fc" d="m -141.47864,510.9728 a 3.2742185,3.2742185 0 0 1 -3.27421,3.27422 3.2742185,3.2742185 0 0 1 -3.27422,-3.27422 3.2742185,3.2742185 0 0 1 3.27422,-3.27422 3.2742185,3.2742185 0 0 1 3.27421,3.27422 z"/><g fill="#3a3640" transform="translate(3.911 179.572)"><path style="line-height:normal;font-variant-ligatures:normal;font-variant-position:normal;font-variant-caps:normal;font-variant-numeric:normal;font-variant-alternates:normal;font-feature-settings:normal;text-indent:0;text-align:start;text-decoration-line:none;text-decoration-style:solid;text-decoration-color:#000;text-transform:none;text-orientation:mixed;shape-padding:0;isolation:auto;mix-blend-mode:normal" d="m -147.72447,333.86896 a 0.13216862,0.13232473 0 0 0 -0.12096,0.1758 c 0.0104,0.0318 0.0242,0.0626 0.0429,0.0918 0.0374,0.0576 0.0882,0.10433 0.14634,0.1426 a 0.13216862,0.13232473 0 0 0 0,0.002 c 0.11668,0.0763 0.26703,0.11721 0.42925,0.11721 0.1622,0 0.31061,-0.0409 0.42729,-0.11721 0.0583,-0.0382 0.10896,-0.0867 0.14634,-0.14455 0.0185,-0.0287 0.0343,-0.0598 0.0448,-0.0937 a 0.13298602,0.13314309 0 1 0 -0.25365,-0.0801 c -0.003,0.009 -0.007,0.0205 -0.0137,0.0312 -0.0135,0.0208 -0.0357,0.0431 -0.0683,0.0644 -0.0652,0.0427 -0.1675,0.0742 -0.28291,0.0742 -0.11468,0 -0.21754,-0.0319 -0.28292,-0.0742 h -0.002 c -0.0321,-0.0213 -0.0548,-0.0457 -0.0683,-0.0664 -0.006,-0.01 -0.0102,-0.0187 -0.0137,-0.0293 a 0.13216862,0.13232473 0 0 0 -0.13073,-0.0937 z" color="#000" font-family="sans-serif" font-weight="400" overflow="visible" white-space="normal"/><path style="line-height:normal;font-variant-ligatures:normal;font-variant-position:normal;font-variant-caps:normal;font-variant-numeric:normal;font-variant-alternates:normal;font-feature-settings:normal;text-indent:0;text-align:start;text-decoration-line:none;text-decoration-style:solid;text-decoration-color:#000;text-transform:none;text-orientation:mixed;shape-padding:0;isolation:auto;mix-blend-mode:normal" d="m -146.73916,333.86896 a 0.13216862,0.13232473 0 0 0 -0.12097,0.1758 c 0.0104,0.0318 0.0242,0.0626 0.0429,0.0918 0.0374,0.0576 0.0882,0.10433 0.14634,0.1426 a 0.13216862,0.13232473 0 0 0 0,0.002 c 0.11668,0.0763 0.26508,0.11721 0.42729,0.11721 0.16221,0 0.31257,-0.0409 0.42925,-0.11721 0.0583,-0.0382 0.10897,-0.0867 0.14633,-0.14455 0.0185,-0.0287 0.0324,-0.0598 0.043,-0.0937 a 0.13216862,0.13232473 0 1 0 -0.25169,-0.0801 c -0.003,0.009 -0.007,0.0205 -0.0137,0.0312 -0.0135,0.0208 -0.0377,0.0431 -0.0702,0.0644 -0.0652,0.0427 -0.16751,0.0742 -0.28292,0.0742 -0.11542,0 -0.21757,-0.0315 -0.2829,-0.0742 -0.0329,-0.0216 -0.0546,-0.0454 -0.0683,-0.0664 -0.006,-0.01 -0.0122,-0.0187 -0.0156,-0.0293 a 0.13216862,0.13232473 0 0 0 -0.12877,-0.0937 z" color="#000" font-family="sans-serif" font-weight="400" overflow="visible" white-space="normal"/><path style="line-height:normal;font-variant-ligatures:normal;font-variant-position:normal;font-variant-caps:normal;font-variant-numeric:normal;font-variant-alternates:normal;font-feature-settings:normal;text-indent:0;text-align:start;text-decoration-line:none;text-decoration-style:solid;text-decoration-color:#000;text-transform:none;text-orientation:mixed;shape-padding:0;isolation:auto;mix-blend-mode:normal" d="M-145.7558 333.86896a.13216862.13232473 0 0 0-.12096.1758c.0104.0318.0262.0626.0448.0918.0374.0576.0882.10433.14634.1426a.13216862.13232473 0 0 0 0 .002c.11668.0763.26508.11721.42729.11721a.13267829.132835 0 1 0 0-.26567c-.11541 0-.21759-.0315-.28291-.0742-.0329-.0216-.0547-.0454-.0683-.0664-.006-.01-.0122-.0187-.0156-.0293a.13216862.13232473 0 0 0-.13073-.0937zM-152.65688 333.86896a.13216862.13232473 0 0 0-.11317.0937c-.003.0106-.01.0195-.0156.0293-.0136.021-.0355.0448-.0683.0664-.0653.0427-.1675.0742-.28291.0742a.13267829.132835 0 1 0 0 .26567c.1622 0 .31061-.0409.4273-.11721a.13216862.13232473 0 0 0 0-.002c.0581-.0383.10898-.085.14633-.1426.0188-.0292.0346-.06.0448-.0918a.13216862.13232473 0 0 0-.13852-.1758z" color="#000" font-family="sans-serif" font-weight="400" overflow="visible" white-space="normal"/><path style="line-height:normal;font-variant-ligatures:normal;font-variant-position:normal;font-variant-caps:normal;font-variant-numeric:normal;font-variant-alternates:normal;font-feature-settings:normal;text-indent:0;text-align:start;text-decoration-line:none;text-decoration-style:solid;text-decoration-color:#000;text-transform:none;text-orientation:mixed;shape-padding:0;isolation:auto;mix-blend-mode:normal" d="m -152.64908,333.86896 a 0.13216862,0.13232473 0 0 0 -0.12097,0.1758 c 0.0104,0.0318 0.0242,0.0626 0.043,0.0918 0.0374,0.0579 0.0883,0.10438 0.14633,0.1426 a 0.13216862,0.13232473 0 0 0 0,0.002 c 0.11669,0.0763 0.26704,0.11721 0.42924,0.11721 0.16222,0 0.31062,-0.0409 0.42729,-0.11721 0.0583,-0.0382 0.10897,-0.0867 0.14634,-0.14455 0.0185,-0.0287 0.0343,-0.0598 0.0449,-0.0937 a 0.13298602,0.13314309 0 1 0 -0.25365,-0.0801 c -0.003,0.009 -0.007,0.0205 -0.0137,0.0312 -0.0135,0.0208 -0.0357,0.0431 -0.0683,0.0644 -0.0652,0.0427 -0.16748,0.0742 -0.2829,0.0742 -0.11468,0 -0.21754,-0.0319 -0.28291,-0.0742 h -0.002 c -0.0321,-0.0214 -0.0551,-0.0441 -0.0683,-0.0644 -0.007,-0.0104 -0.01,-0.0201 -0.0137,-0.0312 a 0.13216862,0.13232473 0 0 0 -0.13072,-0.0937 z" color="#000" font-family="sans-serif" font-weight="400" overflow="visible" white-space="normal"/><path style="line-height:normal;font-variant-ligatures:normal;font-variant-position:normal;font-variant-caps:normal;font-variant-numeric:normal;font-variant-alternates:normal;font-feature-settings:normal;text-indent:0;text-align:start;text-decoration-line:none;text-decoration-style:solid;text-decoration-color:#000;text-transform:none;text-orientation:mixed;shape-padding:0;isolation:auto;mix-blend-mode:normal" d="m -151.66377,333.86896 a 0.13216862,0.13232473 0 0 0 -0.12096,0.1758 c 0.0104,0.0318 0.0242,0.0626 0.0429,0.0918 0.0374,0.0576 0.0882,0.10433 0.14633,0.1426 a 0.13216862,0.13232473 0 0 0 0,0.002 c 0.11668,0.0763 0.26509,0.11721 0.42729,0.11721 0.16221,0 0.31257,-0.0409 0.42925,-0.11721 0.0583,-0.0382 0.10897,-0.0867 0.14634,-0.14455 0.0185,-0.0287 0.0324,-0.0598 0.0429,-0.0937 a 0.13216862,0.13232473 0 1 0 -0.25169,-0.0801 c -0.003,0.009 -0.007,0.0205 -0.0137,0.0312 -0.0135,0.0208 -0.0377,0.0431 -0.0702,0.0644 -0.0652,0.0427 -0.1675,0.0742 -0.28292,0.0742 -0.1154,0 -0.21757,-0.0315 -0.28291,-0.0742 -0.0329,-0.0216 -0.0547,-0.0454 -0.0683,-0.0664 -0.006,-0.01 -0.0122,-0.0187 -0.0156,-0.0293 a 0.13216862,0.13232473 0 0 0 -0.12878,-0.0937 z" color="#000" font-family="sans-serif" font-weight="400" overflow="visible" white-space="normal"/><path style="line-height:normal;font-variant-ligatures:normal;font-variant-position:normal;font-variant-caps:normal;font-variant-numeric:normal;font-variant-alternates:normal;font-feature-settings:normal;text-indent:0;text-align:start;text-decoration-line:none;text-decoration-style:solid;text-decoration-color:#000;text-transform:none;text-orientation:mixed;shape-padding:0;isolation:auto;mix-blend-mode:normal" d="m -150.6804,333.86896 a 0.13216862,0.13232473 0 0 0 -0.12098,0.1758 c 0.0104,0.0318 0.0262,0.0626 0.0449,0.0918 0.0374,0.0576 0.0882,0.10433 0.14634,0.1426 a 0.13216862,0.13232473 0 0 0 0,0.002 c 0.11668,0.0763 0.26507,0.11721 0.42729,0.11721 0.1622,0 0.31061,-0.0409 0.42729,-0.11721 0.0583,-0.0382 0.10896,-0.0867 0.14633,-0.14455 0.0185,-0.0287 0.0343,-0.0598 0.0449,-0.0937 a 0.13216862,0.13232473 0 1 0 -0.25169,-0.0801 c -0.003,0.009 -0.007,0.0205 -0.0137,0.0312 -0.0135,0.0208 -0.0377,0.0431 -0.0702,0.0644 -0.0652,0.0427 -0.1675,0.0742 -0.28291,0.0742 -0.11543,0 -0.21758,-0.0315 -0.28291,-0.0742 -0.0329,-0.0216 -0.0548,-0.0454 -0.0683,-0.0664 -0.006,-0.01 -0.0122,-0.0187 -0.0156,-0.0293 a 0.13216862,0.13232473 0 0 0 -0.13071,-0.0937 z" color="#000" font-family="sans-serif" font-weight="400" overflow="visible" white-space="normal"/><path style="line-height:normal;font-variant-ligatures:normal;font-variant-position:normal;font-variant-caps:normal;font-variant-numeric:normal;font-variant-alternates:normal;font-feature-settings:normal;text-indent:0;text-align:start;text-decoration-line:none;text-decoration-style:solid;text-decoration-color:#000;text-transform:none;text-orientation:mixed;shape-padding:0;isolation:auto;mix-blend-mode:normal" d="m -149.6951,333.86896 a 0.13216862,0.13232473 0 0 0 -0.12096,0.1758 c 0.0104,0.0318 0.0262,0.0626 0.0448,0.0918 0.0374,0.0576 0.0882,0.10433 0.14634,0.1426 a 0.13216862,0.13232473 0 0 0 0,0.002 c 0.11668,0.0763 0.26508,0.11721 0.42729,0.11721 0.1622,0 0.31062,-0.0409 0.4273,-0.11721 0.0583,-0.0382 0.10896,-0.0867 0.14633,-0.14455 0.0185,-0.0287 0.0343,-0.0598 0.0448,-0.0937 a 0.13216862,0.13232473 0 1 0 -0.25169,-0.0801 c -0.003,0.009 -0.009,0.0205 -0.0156,0.0312 -0.0135,0.0208 -0.0357,0.0431 -0.0683,0.0644 -0.0652,0.0427 -0.1675,0.0742 -0.28291,0.0742 -0.11542,0 -0.21759,-0.0315 -0.28291,-0.0742 -0.0329,-0.0216 -0.0566,-0.0454 -0.0702,-0.0664 -0.006,-0.01 -0.0103,-0.019 -0.0137,-0.0293 a 0.13216862,0.13232473 0 0 0 -0.13073,-0.0937 z" color="#000" font-family="sans-serif" font-weight="400" overflow="visible" white-space="normal"/><path style="line-height:normal;font-variant-ligatures:normal;font-variant-position:normal;font-variant-caps:normal;font-variant-numeric:normal;font-variant-alternates:normal;font-feature-settings:normal;text-indent:0;text-align:start;text-decoration-line:none;text-decoration-style:solid;text-decoration-color:#000;text-transform:none;text-orientation:mixed;shape-padding:0;isolation:auto;mix-blend-mode:normal" d="M-148.70978 333.86896a.13216862.13232473 0 0 0-.12097.1758c.0104.0318.0242.0626.043.0918a.13216862.13232473 0 0 0 .002 0c.0374.0576.0862.10433.14439.1426a.13216862.13232473 0 0 0 .002.002c.11669.0763.26509.11721.4273.11721.16221 0 .31061-.0409.42729-.11721.0583-.0382.10897-.0867.14634-.14455.0185-.0287.0344-.0598.0449-.0937a.13298602.13314309 0 1 0-.25365-.0801c-.003.009-.007.0205-.0137.0312-.0135.0208-.0357.0431-.0683.0644-.0652.0427-.1675.0742-.28291.0742-.11542 0-.21758-.0315-.28291-.0742-.0329-.0216-.0566-.0454-.0702-.0664-.006-.01-.0102-.0187-.0137-.0293a.13216862.13232473 0 0 0-.13072-.0937zM-147.41424 334.66205a.13216862.13232473 0 0 0-.12097.1758c.0104.0318.0242.0626.043.0918a.13216862.13232473 0 0 0 0 .002c.0374.0576.0882.10433.14634.1426.11668.0763.26702.11721.42924.11721.1622 0 .31062-.0409.4273-.11721.0583-.0382.10896-.0867.14633-.14455.0185-.0287.0343-.0598.0448-.0937a.1326878.13284452 0 1 0-.25364-.0781c-.003.009-.007.0186-.0137.0293-.0135.0208-.0357.045-.0683.0664-.0652.0427-.16751.0742-.28292.0742-.11542 0-.21758-.0315-.28291-.0742-.0329-.0216-.0566-.0454-.0702-.0664-.007-.0104-.01-.0201-.0137-.0312a.13216862.13232473 0 0 0-.13073-.0937z" color="#000" font-family="sans-serif" font-weight="400" overflow="visible" white-space="normal"/><path style="line-height:normal;font-variant-ligatures:normal;font-variant-position:normal;font-variant-caps:normal;font-variant-numeric:normal;font-variant-alternates:normal;font-feature-settings:normal;text-indent:0;text-align:start;text-decoration-line:none;text-decoration-style:solid;text-decoration-color:#000;text-transform:none;text-orientation:mixed;shape-padding:0;isolation:auto;mix-blend-mode:normal" d="m -146.42894,334.66205 a 0.13216862,0.13232473 0 0 0 -0.12096,0.1758 c 0.0104,0.0318 0.0242,0.0626 0.043,0.0918 a 0.13216862,0.13232473 0 0 0 0,0.002 c 0.0374,0.0576 0.0882,0.10433 0.14633,0.1426 0.11669,0.0763 0.26509,0.11721 0.4273,0.11721 0.16221,0 0.31257,-0.0409 0.42925,-0.11721 0.0583,-0.0382 0.10896,-0.0867 0.14633,-0.14455 0.0185,-0.0287 0.0344,-0.0598 0.0448,-0.0937 a 0.1326878,0.13284452 0 1 0 -0.25363,-0.0781 c -0.003,0.009 -0.007,0.0186 -0.0137,0.0293 -0.0135,0.0208 -0.0357,0.045 -0.0683,0.0664 -0.0652,0.0427 -0.16946,0.0742 -0.28487,0.0742 -0.11542,0 -0.21758,-0.0315 -0.2829,-0.0742 -0.0329,-0.0216 -0.0548,-0.0454 -0.0683,-0.0664 -0.007,-0.0104 -0.012,-0.0201 -0.0156,-0.0312 a 0.13216862,0.13232473 0 0 0 -0.12878,-0.0937 z" color="#000" font-family="sans-serif" font-weight="400" overflow="visible" white-space="normal"/><path style="line-height:normal;font-variant-ligatures:normal;font-variant-position:normal;font-variant-caps:normal;font-variant-numeric:normal;font-variant-alternates:normal;font-feature-settings:normal;text-indent:0;text-align:start;text-decoration-line:none;text-decoration-style:solid;text-decoration-color:#000;text-transform:none;text-orientation:mixed;shape-padding:0;isolation:auto;mix-blend-mode:normal" d="M-145.44362 334.66205a.13216862.13232473 0 0 0-.12291.1758c.0104.0318.0262.0626.0448.0918a.13216862.13232473 0 0 0 0 .002c.0374.0576.0882.10433.14633.1426.11669.0763.26509.11721.4273.11721a.13216862.13232473 0 1 0 0-.26372c-.11541 0-.21759-.0315-.28292-.0742-.0329-.0216-.0546-.0454-.0683-.0664-.007-.0104-.012-.0201-.0156-.0312a.13216862.13232473 0 0 0-.12878-.0937zM-152.333 334.66205a.13216862.13232473 0 0 0-.12682.0937c-.004.0112-.009.0209-.0156.0312-.0136.021-.0355.0448-.0683.0664-.0653.0427-.1675.0742-.28291.0742a.13216862.13232473 0 1 0 0 .26372c.1622 0 .31061-.0409.42729-.11721.0581-.0383.10899-.085.14634-.1426a.13216862.13232473 0 0 0 0-.002c.0187-.0292.0346-.06.0448-.0918a.13216862.13232473 0 0 0-.12487-.1758z" color="#000" font-family="sans-serif" font-weight="400" overflow="visible" white-space="normal"/><path style="line-height:normal;font-variant-ligatures:normal;font-variant-position:normal;font-variant-caps:normal;font-variant-numeric:normal;font-variant-alternates:normal;font-feature-settings:normal;text-indent:0;text-align:start;text-decoration-line:none;text-decoration-style:solid;text-decoration-color:#000;text-transform:none;text-orientation:mixed;shape-padding:0;isolation:auto;mix-blend-mode:normal" d="m -152.33885,334.66205 a 0.13216862,0.13232473 0 0 0 -0.12097,0.1758 c 0.0103,0.0318 0.0242,0.0626 0.043,0.0918 a 0.13216862,0.13232473 0 0 0 0,0.002 c 0.0374,0.0576 0.0882,0.10433 0.14634,0.1426 0.11669,0.0763 0.26704,0.11721 0.42925,0.11721 0.16221,0 0.31061,-0.0409 0.42728,-0.11721 0.0583,-0.0382 0.10897,-0.0867 0.14634,-0.14455 0.0185,-0.0287 0.0344,-0.0598 0.0449,-0.0937 a 0.13269257,0.1328493 0 1 0 -0.25365,-0.0781 c -0.003,0.009 -0.007,0.0186 -0.0137,0.0293 -0.0135,0.0208 -0.0357,0.045 -0.0683,0.0664 -0.0652,0.0427 -0.16748,0.0742 -0.2829,0.0742 -0.11468,0 -0.21754,-0.0319 -0.28292,-0.0742 h -0.002 c -0.0321,-0.0213 -0.0548,-0.0457 -0.0683,-0.0664 -0.007,-0.0104 -0.01,-0.0201 -0.0137,-0.0312 a 0.13216862,0.13232473 0 0 0 -0.13072,-0.0937 z" color="#000" font-family="sans-serif" font-weight="400" overflow="visible" white-space="normal"/><path style="line-height:normal;font-variant-ligatures:normal;font-variant-position:normal;font-variant-caps:normal;font-variant-numeric:normal;font-variant-alternates:normal;font-feature-settings:normal;text-indent:0;text-align:start;text-decoration-line:none;text-decoration-style:solid;text-decoration-color:#000;text-transform:none;text-orientation:mixed;shape-padding:0;isolation:auto;mix-blend-mode:normal" d="m -151.35354,334.66205 a 0.13216862,0.13232473 0 0 0 -0.12097,0.1758 c 0.0104,0.0318 0.0242,0.0626 0.043,0.0918 a 0.13216862,0.13232473 0 0 0 0,0.002 c 0.0374,0.0576 0.0882,0.10433 0.14634,0.1426 0.11668,0.0763 0.26509,0.11721 0.42729,0.11721 0.16221,0 0.31257,-0.0409 0.42925,-0.11721 0.0583,-0.0382 0.10897,-0.0867 0.14633,-0.14455 0.0185,-0.0287 0.0324,-0.0598 0.043,-0.0937 a 0.13216862,0.13232473 0 1 0 -0.25169,-0.0781 c -0.003,0.009 -0.007,0.0186 -0.0137,0.0293 -0.0135,0.0208 -0.0357,0.045 -0.0683,0.0664 -0.0652,0.0427 -0.16945,0.0742 -0.28487,0.0742 -0.11541,0 -0.21757,-0.0315 -0.28291,-0.0742 -0.0329,-0.0216 -0.0547,-0.0454 -0.0683,-0.0664 -0.007,-0.0104 -0.012,-0.0201 -0.0156,-0.0312 a 0.13216862,0.13232473 0 0 0 -0.12877,-0.0937 z" color="#000" font-family="sans-serif" font-weight="400" overflow="visible" white-space="normal"/><path style="line-height:normal;font-variant-ligatures:normal;font-variant-position:normal;font-variant-caps:normal;font-variant-numeric:normal;font-variant-alternates:normal;font-feature-settings:normal;text-indent:0;text-align:start;text-decoration-line:none;text-decoration-style:solid;text-decoration-color:#000;text-transform:none;text-orientation:mixed;shape-padding:0;isolation:auto;mix-blend-mode:normal" d="m -150.36822,334.66205 a 0.13216862,0.13232473 0 0 0 -0.12293,0.1758 c 0.0104,0.0318 0.0262,0.0626 0.0449,0.0918 a 0.13216862,0.13232473 0 0 0 0,0.002 c 0.0374,0.0576 0.0882,0.10433 0.14633,0.1426 0.11669,0.0763 0.26508,0.11721 0.4273,0.11721 0.1622,0 0.31061,-0.0409 0.42728,-0.11721 a 0.13216862,0.13232473 0 0 0 0.002,0 c 0.0583,-0.0382 0.10896,-0.0867 0.14633,-0.14455 0.0185,-0.0287 0.0324,-0.0598 0.043,-0.0937 a 0.13216862,0.13232473 0 1 0 -0.25169,-0.0781 c -0.003,0.009 -0.007,0.0186 -0.0137,0.0293 -0.0135,0.0208 -0.0377,0.045 -0.0702,0.0664 -0.0652,0.0427 -0.16749,0.0742 -0.2829,0.0742 -0.11543,0 -0.21759,-0.0315 -0.28291,-0.0742 -0.0329,-0.0216 -0.0547,-0.0454 -0.0683,-0.0664 -0.007,-0.0104 -0.012,-0.0201 -0.0156,-0.0312 a 0.13216862,0.13232473 0 0 0 -0.12876,-0.0937 z" color="#000" font-family="sans-serif" font-weight="400" overflow="visible" white-space="normal"/><path style="line-height:normal;font-variant-ligatures:normal;font-variant-position:normal;font-variant-caps:normal;font-variant-numeric:normal;font-variant-alternates:normal;font-feature-settings:normal;text-indent:0;text-align:start;text-decoration-line:none;text-decoration-style:solid;text-decoration-color:#000;text-transform:none;text-orientation:mixed;shape-padding:0;isolation:auto;mix-blend-mode:normal" d="m -149.38487,334.66205 a 0.13216862,0.13232473 0 0 0 -0.12096,0.1758 c 0.0104,0.0318 0.0262,0.0626 0.0448,0.0918 a 0.13216862,0.13232473 0 0 0 0,0.002 c 0.0374,0.0576 0.0882,0.10433 0.14633,0.1426 0.11669,0.0763 0.26509,0.11721 0.4273,0.11721 0.1622,0 0.31061,-0.0409 0.42729,-0.11721 0.0583,-0.0382 0.10897,-0.0867 0.14634,-0.14455 0.0185,-0.0287 0.0344,-0.0598 0.0448,-0.0937 a 0.13216862,0.13232473 0 1 0 -0.25169,-0.0781 c -0.003,0.009 -0.007,0.0186 -0.0137,0.0293 -0.0135,0.0208 -0.0377,0.045 -0.0702,0.0664 -0.0652,0.0427 -0.1675,0.0742 -0.28291,0.0742 -0.11542,0 -0.21759,-0.0315 -0.28292,-0.0742 -0.0324,-0.0213 -0.0546,-0.0457 -0.0683,-0.0664 -0.007,-0.0104 -0.012,-0.0201 -0.0156,-0.0312 a 0.13216862,0.13232473 0 0 0 -0.13073,-0.0937 z" color="#000" font-family="sans-serif" font-weight="400" overflow="visible" white-space="normal"/><path style="line-height:normal;font-variant-ligatures:normal;font-variant-position:normal;font-variant-caps:normal;font-variant-numeric:normal;font-variant-alternates:normal;font-feature-settings:normal;text-indent:0;text-align:start;text-decoration-line:none;text-decoration-style:solid;text-decoration-color:#000;text-transform:none;text-orientation:mixed;shape-padding:0;isolation:auto;mix-blend-mode:normal" d="M-148.39955 334.66205a.13216862.13232473 0 0 0-.12097.1758c.0104.0318.0242.0626.043.0918a.13216862.13232473 0 0 0 .002.002c.0374.0576.0862.10433.14439.1426a.13216862.13232473 0 0 0 .002 0c.11668.0763.26509.11721.4273.11721.16221 0 .31061-.0409.42729-.11721.0583-.0382.10897-.0867.14633-.14455.0185-.0287.0343-.0598.0449-.0937a.13216862.13232473 0 1 0-.2517-.0781c-.003.009-.009.0186-.0156.0293-.0135.0208-.0357.045-.0683.0664-.0652.0427-.16751.0742-.28291.0742-.11542 0-.21758-.0315-.28291-.0742-.0329-.0216-.0566-.0454-.0702-.0664-.007-.0104-.01-.0201-.0137-.0312a.13216862.13232473 0 0 0-.13072-.0937zM-149.93899 330.39774a.13216859.1323247 0 0 0-.10731.0996c-.0698.26475-.10925.55408-.10925.85755.00001.30346.0396.5928.10925.85755.0349.1324.0768.25835.12682.37701a.13216859.1323247 0 1 0 .24389-.10158c-.045-.10659-.0833-.22098-.11511-.34185-.0637-.24181-.0995-.51001-.0995-.79113 0-.28113.0358-.54739.0995-.78918a.13216859.1323247 0 0 0-.14829-.16799z" color="#000" font-family="sans-serif" font-weight="400" overflow="visible" white-space="normal"/><path style="line-height:normal;font-variant-ligatures:normal;font-variant-position:normal;font-variant-caps:normal;font-variant-numeric:normal;font-variant-alternates:normal;font-feature-settings:normal;text-indent:0;text-align:start;text-decoration-line:none;text-decoration-style:solid;text-decoration-color:#000;text-transform:none;text-orientation:mixed;shape-padding:0;isolation:auto;mix-blend-mode:normal" d="m -151.81986,329.10652 c -0.42163,0 -0.79099,0.273 -1.04579,0.68175 -0.25481,0.40874 -0.40583,0.95974 -0.40583,1.56664 0,0.60689 0.15102,1.1579 0.40583,1.56664 0.2548,0.40874 0.62416,0.6837 1.04579,0.6837 a 0.13267829,0.132835 0 1 0 0,-0.26567 c -0.30719,0 -0.59859,-0.19927 -0.82141,-0.55673 -0.22283,-0.35745 -0.36681,-0.86568 -0.36681,-1.42794 0,-0.56227 0.14398,-1.06854 0.36681,-1.42599 0.22282,-0.35746 0.51422,-0.55869 0.82141,-0.55869 h 2.24963 c 0.29247,0 0.5268,0.23461 0.52681,0.52743 v 0.26566 c 0,0.14772 -0.11781,0.26567 -0.26536,0.26567 -0.14752,0 -0.26339,-0.11795 -0.26339,-0.26567 a 0.132675,0.13283171 0 1 0 -0.26535,0 c 0,0.29074 0.23837,0.52938 0.52874,0.52938 0.29038,0 0.52876,-0.23864 0.52876,-0.52938 v -0.26566 c -1e-5,-0.43582 -0.3549,-0.79114 -0.79021,-0.79114 z" color="#000" font-family="sans-serif" font-weight="400" overflow="visible" white-space="normal"/><path style="line-height:normal;font-variant-ligatures:normal;font-variant-position:normal;font-variant-caps:normal;font-variant-numeric:normal;font-variant-alternates:normal;font-feature-settings:normal;text-indent:0;text-align:start;text-decoration-line:none;text-decoration-style:solid;text-decoration-color:#000;text-transform:none;text-orientation:mixed;shape-padding:0;isolation:auto;mix-blend-mode:normal" d="m -152.09887,330.03049 a 0.13216861,0.13232472 0 0 0 -0.11706,0.13283 c 0,0.29074 0.23838,0.52938 0.52875,0.52938 0.29039,0 0.52875,-0.23864 0.52875,-0.52938 a 0.13268,0.13283671 0 1 0 -0.26536,0 c 0,0.14772 -0.11585,0.26567 -0.26339,0.26567 -0.14753,0 -0.26535,-0.11795 -0.26535,-0.26567 a 0.13216861,0.13232472 0 0 0 -0.14634,-0.13283 z" color="#000" font-family="sans-serif" font-weight="400" overflow="visible" white-space="normal"/><path style="line-height:normal;font-variant-ligatures:normal;font-variant-position:normal;font-variant-caps:normal;font-variant-numeric:normal;font-variant-alternates:normal;font-feature-settings:normal;text-indent:0;text-align:start;text-decoration-line:none;text-decoration-style:solid;text-decoration-color:#000;text-transform:none;text-orientation:mixed;shape-padding:0;isolation:auto;mix-blend-mode:normal" d="m -151.30672,330.03049 a 0.13216861,0.13232472 0 0 0 -0.11707,0.13283 c 0,0.29074 0.23839,0.52938 0.52876,0.52938 0.29038,0 0.52875,-0.23864 0.52875,-0.52938 a 0.13216861,0.13232472 0 1 0 -0.26339,0 c 0,0.14772 -0.11781,0.26567 -0.26536,0.26567 -0.14753,0 -0.2634,-0.11795 -0.2634,-0.26567 a 0.13216861,0.13232472 0 0 0 -0.14829,-0.13283 z" color="#000" font-family="sans-serif" font-weight="400" overflow="visible" white-space="normal"/><path style="line-height:normal;font-variant-ligatures:normal;font-variant-position:normal;font-variant-caps:normal;font-variant-numeric:normal;font-variant-alternates:normal;font-feature-settings:normal;text-indent:0;text-align:start;text-decoration-line:none;text-decoration-style:solid;text-decoration-color:#000;text-transform:none;text-orientation:mixed;shape-padding:0;isolation:auto;mix-blend-mode:normal" d="M-150.51261 330.03049a.13216861.13232472 0 0 0-.11706.13283c0 .29074.23837.52938.52874.52938.29039 0 .52876-.23864.52876-.52938a.132675.13283171 0 1 0-.26535 0c0 .14772-.11586.26567-.26341.26567-.14753 0-.26535-.11795-.26535-.26567a.13216861.13232472 0 0 0-.14633-.13283zM-146.42112 333.07587a.13216862.13232473 0 0 0-.10731.17385c.0103.0318.0262.0626.0448.0918a.13216862.13232473 0 0 0 0 .002c.0374.0576.0882.10433.14633.1426.11668.0763.26509.11916.4273.11916.1622 0 .31061-.0428.42729-.11916.0583-.0382.10897-.0847.14634-.1426.0185-.0287.0344-.0618.0448-.0957a.13216862.13232473 0 1 0-.2517-.0781c-.003.009-.009.0186-.0156.0293-.0135.0208-.0357.045-.0683.0664-.0652.0427-.1675.0742-.28291.0742-.11542 0-.21759-.0315-.28292-.0742-.0324-.0213-.0546-.0457-.0683-.0664-.007-.0104-.012-.0201-.0156-.0312a.13216862.13232473 0 0 0-.14438-.0918zM-151.33988 333.07587a.13216862.13232473 0 0 0-.11317.0918c-.004.0112-.007.0209-.0137.0312-.0136.021-.0374.0448-.0702.0664-.0653.0427-.1675.0742-.28291.0742a.13267829.132835 0 1 0 0 .26567c.16221 0 .31061-.0429.4273-.11916a.13216862.13232473 0 0 0 .002 0c.0581-.0383.10703-.085.14438-.1426a.13216862.13232473 0 0 0 .002-.002c.0187-.0292.0326-.06.043-.0918a.13216862.13232473 0 0 0-.13853-.17385z" color="#000" font-family="sans-serif" font-weight="400" overflow="visible" white-space="normal"/><path style="line-height:normal;font-variant-ligatures:normal;font-variant-position:normal;font-variant-caps:normal;font-variant-numeric:normal;font-variant-alternates:normal;font-feature-settings:normal;text-indent:0;text-align:start;text-decoration-line:none;text-decoration-style:solid;text-decoration-color:#000;text-transform:none;text-orientation:mixed;shape-padding:0;isolation:auto;mix-blend-mode:normal" d="m -151.34574,333.07587 a 0.13216862,0.13232473 0 0 0 -0.10731,0.17385 c 0.0104,0.0318 0.0262,0.0626 0.0449,0.0918 a 0.13216862,0.13232473 0 0 0 0,0.002 c 0.0374,0.0576 0.0882,0.10433 0.14633,0.1426 0.11669,0.0763 0.26509,0.11916 0.4273,0.11916 0.16221,0 0.31062,-0.0428 0.42729,-0.11916 0.0583,-0.0382 0.10896,-0.0847 0.14634,-0.1426 0.0185,-0.0287 0.0344,-0.0618 0.0448,-0.0957 a 0.13216862,0.13232473 0 1 0 -0.25169,-0.0781 c -0.003,0.009 -0.009,0.0186 -0.0156,0.0293 -0.0135,0.0208 -0.0357,0.045 -0.0683,0.0664 -0.0652,0.0427 -0.16749,0.0742 -0.28291,0.0742 -0.11541,0 -0.21759,-0.0315 -0.28291,-0.0742 -0.0324,-0.0213 -0.0546,-0.0457 -0.0683,-0.0664 -0.007,-0.0104 -0.012,-0.0201 -0.0156,-0.0312 a 0.13216862,0.13232473 0 0 0 -0.14439,-0.0918 z" color="#000" font-family="sans-serif" font-weight="400" overflow="visible" white-space="normal"/><path style="line-height:normal;font-variant-ligatures:normal;font-variant-position:normal;font-variant-caps:normal;font-variant-numeric:normal;font-variant-alternates:normal;font-feature-settings:normal;text-indent:0;text-align:start;text-decoration-line:none;text-decoration-style:solid;text-decoration-color:#000;text-transform:none;text-orientation:mixed;shape-padding:0;isolation:auto;mix-blend-mode:normal" d="m -150.36042,333.07587 a 0.13216862,0.13232473 0 0 0 -0.10731,0.17385 c 0.0104,0.0318 0.0242,0.0626 0.0429,0.0918 a 0.13216862,0.13232473 0 0 0 0.002,0.002 c 0.0374,0.0576 0.0862,0.10433 0.14438,0.1426 a 0.13216862,0.13232473 0 0 0 0.002,0 c 0.11669,0.0763 0.2651,0.11916 0.4273,0.11916 0.16221,0 0.31061,-0.0428 0.42729,-0.11916 0.0583,-0.0382 0.10897,-0.0847 0.14634,-0.1426 0.0185,-0.0287 0.0343,-0.0618 0.0449,-0.0957 a 0.13269257,0.1328493 0 1 0 -0.25365,-0.0781 c -0.003,0.009 -0.007,0.0186 -0.0137,0.0293 -0.0135,0.0208 -0.0357,0.045 -0.0683,0.0664 -0.0652,0.0427 -0.16749,0.0742 -0.28291,0.0742 -0.11541,0 -0.21758,-0.0315 -0.28292,-0.0742 -0.0329,-0.0216 -0.0566,-0.0454 -0.0702,-0.0664 -0.007,-0.0104 -0.01,-0.0201 -0.0137,-0.0312 a 0.13216862,0.13232473 0 0 0 -0.14438,-0.0918 z" color="#000" font-family="sans-serif" font-weight="400" overflow="visible" white-space="normal"/><path style="line-height:normal;font-variant-ligatures:normal;font-variant-position:normal;font-variant-caps:normal;font-variant-numeric:normal;font-variant-alternates:normal;font-feature-settings:normal;text-indent:0;text-align:start;text-decoration-line:none;text-decoration-style:solid;text-decoration-color:#000;text-transform:none;text-orientation:mixed;shape-padding:0;isolation:auto;mix-blend-mode:normal" d="m -149.37511,333.07587 a 0.13216862,0.13232473 0 0 0 -0.10732,0.17385 c 0.0104,0.0318 0.0242,0.0626 0.043,0.0918 a 0.13216862,0.13232473 0 0 0 0,0.002 c 0.0374,0.0576 0.0882,0.10433 0.14634,0.1426 0.11668,0.0763 0.26703,0.11916 0.42924,0.11916 0.16221,0 0.31061,-0.0428 0.42729,-0.11916 0.0583,-0.0382 0.10897,-0.0847 0.14633,-0.1426 0.0185,-0.0287 0.0343,-0.0618 0.0449,-0.0957 a 0.13269257,0.1328493 0 1 0 -0.25365,-0.0781 c -0.003,0.009 -0.007,0.0186 -0.0137,0.0293 -0.0135,0.0208 -0.0357,0.045 -0.0683,0.0664 -0.0652,0.0427 -0.1675,0.0742 -0.28291,0.0742 -0.11468,0 -0.21753,-0.0319 -0.28291,-0.0742 h -0.002 c -0.0321,-0.0213 -0.0548,-0.0457 -0.0683,-0.0664 -0.007,-0.0104 -0.01,-0.0201 -0.0137,-0.0312 a 0.13216862,0.13232473 0 0 0 -0.14438,-0.0918 z" color="#000" font-family="sans-serif" font-weight="400" overflow="visible" white-space="normal"/><path style="line-height:normal;font-variant-ligatures:normal;font-variant-position:normal;font-variant-caps:normal;font-variant-numeric:normal;font-variant-alternates:normal;font-feature-settings:normal;text-indent:0;text-align:start;text-decoration-line:none;text-decoration-style:solid;text-decoration-color:#000;text-transform:none;text-orientation:mixed;shape-padding:0;isolation:auto;mix-blend-mode:normal" d="m -148.3898,333.07587 a 0.13216862,0.13232473 0 0 0 -0.10731,0.17385 c 0.0104,0.0318 0.0242,0.0626 0.0429,0.0918 a 0.13216862,0.13232473 0 0 0 0,0.002 c 0.0374,0.0576 0.0882,0.10433 0.14634,0.1426 0.11668,0.0763 0.26508,0.11916 0.42729,0.11916 0.1622,0 0.31257,-0.0428 0.42925,-0.11916 0.0583,-0.0382 0.10896,-0.0847 0.14633,-0.1426 0.0185,-0.0287 0.0324,-0.0618 0.0429,-0.0957 a 0.13216862,0.13232473 0 1 0 -0.25169,-0.0781 c -0.003,0.009 -0.007,0.0186 -0.0137,0.0293 -0.0135,0.0208 -0.0377,0.045 -0.0702,0.0664 -0.0652,0.0427 -0.1675,0.0742 -0.28291,0.0742 -0.11542,0 -0.21758,-0.0315 -0.28291,-0.0742 -0.0329,-0.0216 -0.0547,-0.0454 -0.0683,-0.0664 -0.007,-0.0104 -0.012,-0.0201 -0.0156,-0.0312 a 0.13216862,0.13232473 0 0 0 -0.14243,-0.0918 z" color="#000" font-family="sans-serif" font-weight="400" overflow="visible" white-space="normal"/><path style="line-height:normal;font-variant-ligatures:normal;font-variant-position:normal;font-variant-caps:normal;font-variant-numeric:normal;font-variant-alternates:normal;font-feature-settings:normal;text-indent:0;text-align:start;text-decoration-line:none;text-decoration-style:solid;text-decoration-color:#000;text-transform:none;text-orientation:mixed;shape-padding:0;isolation:auto;mix-blend-mode:normal" d="M-147.40449 333.07587a.13216862.13232473 0 0 0-.10926.17385c.0104.0318.0262.0626.0449.0918a.13216862.13232473 0 0 0 0 .002c.0374.0576.0882.10433.14633.1426.11669.0763.26508.11916.4273.11916.1622 0 .31061-.0428.42728-.11916.0583-.0382.10897-.0847.14634-.1426.0185-.0287.0343-.0618.0449-.0957a.13216862.13232473 0 1 0-.25169-.0781c-.003.009-.007.0186-.0137.0293-.0135.0208-.0377.045-.0702.0664-.0652.0427-.16749.0742-.2829.0742-.11543 0-.21759-.0315-.28292-.0742-.0329-.0216-.0546-.0454-.0683-.0664-.007-.0104-.012-.0201-.0156-.0312a.13216862.13232473 0 0 0-.14243-.0918zM-151.12916 331.56588a.13216859.1323247 0 0 0-.11707.12111c-.0133.12711-.0118.26149.01.40045.0215.13893.0601.26956.11122.38678.0256.0586.0539.11436.0858.16603a.13216859.1323247 0 1 0 .22438-.13869c-.0249-.0403-.0474-.085-.0683-.13283-.0416-.0954-.0736-.2035-.0917-.32036-.0181-.11678-.0206-.23047-.01-.33404a.13216859.1323247 0 0 0-.14438-.14845zM-151.81206 330.94274a.13216859.1323247 0 0 0-.11316.0918c-.0494.1486-.0776.31207-.0819.48444-.004.17253.0168.3404.0585.49422.0209.0769.047.15079.078.22074a.13216859.1323247 0 1 0 .23998-.10744c-.0253-.0571-.0468-.1192-.0644-.18362-.035-.1287-.0523-.2691-.0487-.41608.004-.14708.0295-.28567.0702-.40827a.13216859.1323247 0 0 0-.13853-.1758zM-147.5918 329.23935a.13216861.13232472 0 0 0-.0897.041l-.13073.12893a.13244774.13260417 0 1 0 .18731.18753l.12877-.13088a.13216861.13232472 0 0 0-.0956-.22661zM-148.24737 329.6359a.13216861.13232472 0 0 0-.0936.22855l.13072.12893a.13244774.13260417 0 1 0 .18731-.18753l-.13073-.12893a.13216861.13232472 0 0 0-.0936-.041z" color="#000" font-family="sans-serif" font-weight="400" overflow="visible" white-space="normal"/><path fill-rule="evenodd" d="m -147.20077,330.946 c -0.0256,0 -0.043,0.003 -0.0448,0.004 -0.004,0 -0.007,0.003 -0.0108,0.003 -0.52403,0.0874 -1.06448,0.17744 -1.57937,0.26399 -0.12151,0.0177 -0.22176,0.0844 -0.27775,0.17204 -0.056,0.0876 -0.0709,0.18996 -0.0551,0.28518 0.0158,0.0952 0.063,0.18683 0.14428,0.25158 0.0813,0.0648 0.19774,0.0954 0.31845,0.0728 l 1.32688,-0.22113 0.14738,0.22113 -1.58041,0.87976 h 0.54002 l 1.2934,-0.72014 c 0.0675,-0.0374 0.0887,-0.12475 0.0459,-0.18908 l -0.27413,-0.41172 c -0.0289,-0.0432 -0.0802,-0.0654 -0.13141,-0.0568 l -1.41345,0.23557 c -0.10513,0.0161 -0.1525,-0.0713 -0.15665,-0.10799 -0.008,-0.11173 0.0655,-0.13763 0.11079,-0.1524 0.5244,-0.0867 1.04923,-0.17484 1.57371,-0.26245 0.0639,-0.013 0.10875,0.0145 0.14171,0.0558 0.17603,0.26333 0.35161,0.52832 0.52714,0.79249 0.0437,0.0657 0.0236,0.14957 -0.0453,0.18804 l -1.12901,0.62869 h 0.54621 l 0.71059,-0.39572 c 0.28047,-0.17118 0.21781,-0.46639 0.13707,-0.56621 l -0.52663,-0.79193 c -0.0895,-0.1362 -0.22959,-0.18035 -0.33855,-0.1767 z" color="#000" font-family="sans-serif" font-weight="400" overflow="visible" white-space="normal" style="line-height:normal;font-variant-ligatures:normal;font-variant-position:normal;font-variant-caps:normal;font-variant-numeric:normal;font-variant-alternates:normal;font-feature-settings:normal;text-indent:0;text-align:start;text-decoration-line:none;text-decoration-style:solid;text-decoration-color:#000;text-transform:none;text-orientation:mixed;shape-padding:0;isolation:auto;mix-blend-mode:normal"/><path style="line-height:normal;font-variant-ligatures:normal;font-variant-position:normal;font-variant-caps:normal;font-variant-numeric:normal;font-variant-alternates:normal;font-feature-settings:normal;text-indent:0;text-align:start;text-decoration-line:none;text-decoration-style:solid;text-decoration-color:#000;text-transform:none;text-orientation:mixed;shape-padding:0;isolation:auto;mix-blend-mode:normal" d="m -145.47484,331.07752 c -0.36337,1e-5 -0.65949,0.2984 -0.65947,0.66221 -1e-5,0.3638 0.29611,0.66221 0.65947,0.66221 0.36338,10e-6 0.66143,-0.29841 0.66143,-0.66221 2e-5,-0.36381 -0.29804,-0.66221 -0.66143,-0.66221 z m 0,0.26567 c 0.22054,0 0.39609,0.17574 0.39608,0.39654 0,0.22079 -0.17555,0.39655 -0.39608,0.39655 -0.22052,0 -0.39607,-0.17576 -0.39607,-0.39655 -1e-5,-0.2208 0.17554,-0.39654 0.39607,-0.39654 z" color="#000" font-family="sans-serif" font-weight="400" overflow="visible" white-space="normal"/></g></g></svg>